<svg width="260" height="480" viewBox="0 0 260 480" fill="none" xmlns="http://www.w3.org/2000/svg">
  <defs>
    <linearGradient id="mangoBody" x1="42" y1="28" x2="226" y2="444" gradientUnits="userSpaceOnUse">
      <stop stop-color="#FFD08A"/>
      <stop offset="0.34" stop-color="#F4A53C"/>
      <stop offset="0.72" stop-color="#9A5A1F"/>
      <stop offset="1" stop-color="#1F1008"/>
    </linearGradient>
    <linearGradient id="metalMango" x1="130" y1="0" x2="130" y2="480" gradientUnits="userSpaceOnUse">
      <stop stop-color="#FFF9F1"/>
      <stop offset="0.22" stop-color="#D9CBBF"/>
      <stop offset="0.52" stop-color="#FFFDF8"/>
      <stop offset="0.8" stop-color="#B6A08C"/>
      <stop offset="1" stop-color="#FFF2E2"/>
    </linearGradient>
    <filter id="shadowMango" x="0" y="18" width="260" height="462" filterUnits="userSpaceOnUse" color-interpolation-filters="sRGB">
      <feDropShadow dx="0" dy="30" stdDeviation="26" flood-color="#2C1406" flood-opacity="0.44"/>
    </filter>
  </defs>
  <g filter="url(#shadowMango)">
    <ellipse cx="130" cy="50" rx="76" ry="24" fill="url(#metalMango)"/>
    <rect x="54" y="50" width="152" height="360" rx="34" fill="url(#mangoBody)"/>
    <ellipse cx="130" cy="410" rx="76" ry="24" fill="url(#metalMango)"/>
    <rect x="67" y="62" width="18" height="328" rx="9" fill="#ffffff" fill-opacity="0.34"/>
    <rect x="92" y="148" width="76" height="112" rx="18" fill="#1B0C05" fill-opacity="0.18" stroke="#FFE0B2" stroke-opacity="0.35"/>
    <text x="130" y="205" fill="#FFFDF7" font-family="Arial, sans-serif" font-size="36" font-weight="700" text-anchor="middle">NEON</text>
    <text x="130" y="238" fill="#FFE3B8" font-family="Arial, sans-serif" font-size="16" font-weight="700" letter-spacing="4" text-anchor="middle">SOLAR</text>
    <path d="M116 290C126 274 146 276 151 292C156 307 144 323 130 327C116 323 106 306 116 290Z" fill="#FFF2D1" opacity="0.8"/>
  </g>
</svg>
